<mxfile host="app.diagrams.net" modified="2023-08-02T02:59:46.074Z" agent="Mozilla/5.0 (Macintosh; Intel Mac OS X 10_15_7) AppleWebKit/537.36 (KHTML, like Gecko) Chrome/114.0.0.0 Safari/537.36" version="21.6.6" etag="PvjLLBeb5c7TksTufWgi" type="github">
  <diagram name="第 1 页" id="_gdiekDXMplfy2B0ZpAu">
    <mxGraphModel>
      <root>
        <mxCell id="0" />
        <mxCell id="1" parent="0" />
      </root>
    </mxGraphModel>
  </diagram>
</mxfile>
